<svg xmlns="http://www.w3.org/2000/svg" width="512" height="512" viewBox="0 0 512 512" fill="none"><rect width="512" height="512" fill="#ffffff"/><g transform="translate(-17.19465685471114,-17.194656854711113) scale(9.371068015078034) rotate(15 32 32)"><path d="M32 32 C38 22 40 17 32 10" class="route" stroke="#1f2937" stroke-width="5" stroke-linecap="round"/><path d="M32 32 C37.66 42.2 40.99 46.43 51.05 43" class="route" stroke="#1f2937" stroke-width="5" stroke-linecap="round"/><path d="M32 32 C20.34 31.8 15.01 32.57 12.95 43" class="route" stroke="#1f2937" stroke-width="5" stroke-linecap="round"/><path d="M32 23 A15.59 15.59 0 0 1 39.79 36.5 A15.59 15.59 0 0 1 24.21 36.5 A15.59 15.59 0 0 1 32 23 Z" class="hub" fill="#00cdea"/><circle cx="32" cy="10" r="5.5" class="node" fill="#1f2937"/><circle cx="51.05" cy="43" r="5.5" class="node" fill="#1f2937"/><circle cx="12.95" cy="43" r="5.5" class="node" fill="#1f2937"/></g></svg>